<svg width="560" height="560" fill="none" xmlns="http://www.w3.org/2000/svg"><circle cx="280" cy="280" r="280" fill="#24CE72"/><circle cx="280" cy="280" r="260" fill="#fff"/><circle cx="280" cy="280" r="240" fill="#24CE72"/><path d="M180 278c0-55 45-100 100-100a100.005 100.005 0 0 1 80 40" stroke="#fff" stroke-width="18" stroke-linecap="round" stroke-linejoin="round"/><path d="M210 353c5-15 10-45 10-75 0-7 1.2-13.7 3.4-20M332.9 368.2c1.2-6 4.3-23 5-30.2M280 258a20 20 0 0 0-20 20c0 10.2-1 25.1-2.6 40M246.5 378c2.1-6.6 4.5-13.2 5.7-20M300 289.2c0 23.8 0 63.8-10 88.8M180 318h.1M378 318c2-20 1.31-53.54 0-60M250 226a59.994 59.994 0 0 1 60.017.01A60 60 0 0 1 340 278c0 4.7 0 11.7-.2 20" stroke="#fff" stroke-width="18" stroke-linecap="round" stroke-linejoin="round"/></svg>