<svg width="2140" height="560" fill="none" xmlns="http://www.w3.org/2000/svg"><circle cx="280" cy="280" r="280" fill="#24CE72"/><circle cx="280" cy="280" r="260" fill="#fff"/><circle cx="280" cy="280" r="240" fill="#24CE72"/><path d="M180 278c0-55 45-100 100-100a100.005 100.005 0 0 1 80 40" stroke="#fff" stroke-width="18" stroke-linecap="round" stroke-linejoin="round"/><path d="M210 353c5-15 10-45 10-75 0-7 1.2-13.7 3.4-20M332.9 368.2c1.2-6 4.3-23 5-30.2M280 258a20 20 0 0 0-20 20c0 10.2-1 25.1-2.6 40M246.5 378c2.1-6.6 4.5-13.2 5.7-20M300 289.2c0 23.8 0 63.8-10 88.8M180 318h.1M378 318c2-20 1.31-53.54 0-60M250 226a59.994 59.994 0 0 1 60.017.01A60 60 0 0 1 340 278c0 4.7 0 11.7-.2 20" stroke="#fff" stroke-width="18" stroke-linecap="round" stroke-linejoin="round"/><path d="M748.677 410c-12.815 0-24.648-2.267-35.499-6.801-10.757-4.405-20.111-11.012-28.062-19.821-7.951-8.809-14.125-19.756-18.521-32.84-4.397-13.084-6.595-28.241-6.595-45.471 0-21.245 2.432-40.483 7.296-57.713 4.864-17.229 11.833-31.933 20.907-44.11 9.073-12.307 19.924-21.699 32.552-28.177 12.722-6.607 26.94-9.91 42.655-9.91 6.548 0 12.909.907 19.083 2.72 6.173 1.814 11.739 4.599 16.697 8.356 4.958 3.627 8.886 8.291 11.786 13.991 2.9 5.571 4.35 12.178 4.35 19.821 0 11.4-1.965 20.209-5.893 26.427-3.835 6.089-9.214 9.133-16.136 9.133-3.461 0-6.501-.129-9.121-.388a392.699 392.699 0 0 1-7.015-.778 122.665 122.665 0 0 0-5.893-.971 41.917 41.917 0 0 0-5.753-.389c-2.526 0-4.771.972-6.735 2.915-1.871 1.814-3.461 4.534-4.771 8.161-1.309 3.498-2.291 7.708-2.946 12.631-.655 4.793-.982 10.234-.982 16.323 0 5.052.233 9.716.701 13.991.468 4.275 1.31 8.032 2.526 11.271 1.309 3.109 3.133 5.57 5.472 7.384 2.432 1.813 5.612 2.72 9.541 2.72 1.684 0 3.602-.388 5.753-1.166 2.245-.777 4.63-1.684 7.156-2.72 2.526-1.166 5.238-2.138 8.138-2.915 2.993-.777 6.127-1.166 9.401-1.166 11.225 0 18.895 3.563 23.011 10.688s6.174 16.517 6.174 28.176c0 11.271-2.198 20.792-6.595 28.565-4.303 7.773-10.196 13.991-17.679 18.655-7.483 4.664-15.949 8.032-25.397 10.105-9.447 2.202-19.316 3.303-29.606 3.303zM1022.93 403.199c-7.39 0-13.98-1.296-19.78-3.887-5.709-2.591-10.76-7.449-15.157-14.574a161.206 161.206 0 0 1-2.385-4.08l-1.964-3.887a300.745 300.745 0 0 0-2.526-4.858c-1.029-1.943-2.432-4.34-4.209-7.19-2.152-3.627-4.35-6.477-6.595-8.55-2.151-2.202-4.396-3.821-6.735-4.858a11.846 11.846 0 0 0-3.087-1.166 28.789 28.789 0 0 0-3.648-.582 41.202 41.202 0 0 0-4.069-.195c-2.151 0-4.35.195-6.595.583-2.245.259-4.303.713-6.173 1.36a19.063 19.063 0 0 0-5.613 3.304c-1.59 1.425-3.04 3.109-4.35 5.052-1.309 1.943-2.525 4.081-3.648 6.413a635.841 635.841 0 0 0-3.508 6.995 83.99 83.99 0 0 1-3.928 7.19c-3.181 5.311-7.437 9.975-12.769 13.991s-13.002 6.024-23.011 6.024c-8.793 0-16.136-1.684-22.029-5.052-5.893-3.498-10.29-9.263-13.189-17.295-2.9-8.032-4.35-18.849-4.35-32.451 0-8.162.608-16.388 1.824-24.679 1.31-8.42 3.04-16.776 5.192-25.067 2.151-8.291 4.536-16.258 7.155-23.901 2.713-7.644 5.426-14.834 8.139-21.57 2.806-6.736 5.472-12.76 7.997-18.072 2.526-5.311 4.724-9.651 6.595-13.019 3.087-5.7 6.875-11.789 11.365-18.266 4.49-6.478 9.682-12.566 15.575-18.266a79.248 79.248 0 0 1 20.205-13.991c7.483-3.628 15.809-5.441 24.976-5.441 13.096 0 25.63 3.627 37.603 10.882 12.072 7.125 23.152 17.618 33.252 31.479 4.31 5.83 8.33 12.502 12.07 20.015 3.74 7.514 7.16 15.611 10.24 24.29 3.18 8.55 5.99 17.424 8.42 26.622a357.245 357.245 0 0 1 6.46 27.788c1.77 9.198 3.08 18.136 3.92 26.816.94 8.68 1.41 16.841 1.41 24.484 0 17.619-3.93 29.99-11.79 37.116-7.86 6.995-18.29 10.493-31.29 10.493zm-55.703-118.535c1.777-1.425 2.9-3.174 3.368-5.247.561-2.202.842-5.311.842-9.327 0-2.203-.188-4.599-.562-7.19a73.08 73.08 0 0 0-1.543-7.967c-.655-2.591-1.403-4.793-2.245-6.607-1.216-2.98-2.666-5.312-4.35-6.996-1.684-1.813-3.414-2.72-5.191-2.72-3.181 0-6.034 1.878-8.559 5.635-2.526 3.757-4.49 7.579-5.894 11.465a114.368 114.368 0 0 0-1.262 4.275 58.751 58.751 0 0 0-1.263 5.052l-.842 5.441a42.488 42.488 0 0 0-.281 4.664c0 4.793 1.497 8.226 4.49 10.299 3.087 2.073 6.361 3.109 9.822 3.109a31.3 31.3 0 0 0 5.051-.389 38.07 38.07 0 0 0 4.631-1.36c1.496-.648 2.759-1.36 3.788-2.137zM1141.57 400.09c-6.55 0-12.77-1.879-18.66-5.636-5.89-3.886-11.27-9.133-16.14-15.739-4.86-6.737-9.07-14.445-12.62-23.125-1.22-2.979-2.34-6.218-3.37-9.716a155.385 155.385 0 0 1-2.81-11.076c-.84-4.016-1.59-8.096-2.24-12.242-.56-4.275-1.08-8.615-1.55-13.019-.37-4.535-.7-9.133-.98-13.797a343.66 343.66 0 0 1-.28-13.991c0-29.148 3.09-52.402 9.26-69.761 6.27-17.489 15.95-30.055 29.05-37.698 13.19-7.773 30.12-11.659 50.79-11.659 12.53 0 24.51 1.554 35.92 4.663 11.41 2.98 21.56 7.903 30.45 14.769 8.88 6.736 15.9 15.675 21.04 26.816 5.15 11.141 7.72 24.873 7.72 41.196 0 12.177-1.45 22.929-4.35 32.257-2.9 9.327-7.06 17.165-12.49 23.513-5.33 6.218-11.74 10.946-19.22 14.185-7.39 3.109-15.57 4.664-24.55 4.664-5.8 0-10.81-.778-15.02-2.332-4.21-1.555-7.81-2.332-10.8-2.332-3.46 0-5.61 1.619-6.46 4.858-.74 3.239-1.12 7.578-1.12 13.019v6.413c.1 1.036.14 2.137.14 3.303.1 1.037.14 2.138.14 3.304v3.303c0 15.028-2.52 26.428-7.57 34.2-5.06 7.773-13.15 11.66-24.28 11.66zm39.15-135.441c1.4 0 2.76-.259 4.07-.778a14.67 14.67 0 0 0 3.79-2.526 14.548 14.548 0 0 0 3.08-3.692c.85-1.554 1.5-3.303 1.97-5.246.56-1.944.84-4.016.84-6.219 0-2.332-.14-4.339-.42-6.024-.28-1.813-.7-3.303-1.26-4.469-.57-1.295-1.27-2.332-2.11-3.109-.75-.777-1.68-1.36-2.8-1.749-1.13-.389-2.34-.583-3.65-.583-2.06 0-4.12.194-6.18.583a19.41 19.41 0 0 0-5.47 1.943c-1.59.907-2.85 2.267-3.79 4.081-.93 1.684-1.4 3.886-1.4 6.607 0 2.202.14 4.34.42 6.412.37 2.073.89 4.016 1.54 5.83.66 1.814 1.5 3.368 2.53 4.664 1.12 1.295 2.38 2.332 3.79 3.109 1.49.777 3.18 1.166 5.05 1.166zM1380.7 407.085c-10.76 0-18.99-3.174-24.69-9.521-5.71-6.348-9.26-15.287-10.67-26.817-.37-3.368-.75-6.93-1.12-10.687-.37-3.757-.7-7.708-.98-11.854-.28-4.145-.56-8.485-.84-13.019-.19-4.534-.38-9.328-.56-14.38-.1-5.052-.19-10.299-.29-15.74-.09-5.57-.14-11.4-.14-17.489 0-10.752-.6-18.525-1.82-23.318-1.22-4.793-4.16-7.19-8.84-7.19-4.49 0-8.93.454-13.33 1.36-4.4.907-9.03 1.361-13.89 1.361-5.05 0-9.59-1.684-13.61-5.053-3.93-3.368-7.02-8.161-9.26-14.379-2.25-6.348-3.37-13.732-3.37-22.153 0-9.586 2.48-17.748 7.44-24.484 4.96-6.866 11.55-12.501 19.78-16.906 8.23-4.404 17.31-7.837 27.22-10.299a186.647 186.647 0 0 1 30.31-5.246c10.2-1.037 19.6-1.555 28.2-1.555 9.54 0 19.13.259 28.77.777 9.63.389 18.8 1.555 27.5 3.498 8.7 1.814 16.41 4.793 23.15 8.939 6.73 4.016 12.07 9.586 16 16.711 3.92 7.125 5.89 16.258 5.89 27.399 0 9.846-1.08 18.331-3.23 25.456-2.15 6.996-5.38 12.372-9.68 16.129-4.21 3.757-9.49 5.635-15.86 5.635h-11.08c-1.87-.129-4.3-.194-7.3-.194-3.74 0-6.59.971-8.56 2.915-1.87 1.943-3.18 5.181-3.92 9.716-.75 4.404-1.36 10.493-1.83 18.266-.28 4.275-.61 8.614-.98 13.019a338.23 338.23 0 0 1-1.12 13.019c-.47 4.276-1.03 8.551-1.69 12.826-.56 4.145-1.21 8.226-1.96 12.242-.66 3.886-1.4 7.643-2.25 11.27a92.175 92.175 0 0 1-2.66 9.911c-.94 3.109-1.92 5.894-2.95 8.355-3.09 7.255-6.08 13.214-8.98 17.878-2.9 4.663-6.41 8.096-10.52 10.299-4.12 2.202-9.54 3.303-16.28 3.303zM1591.1 410c-12.82 0-24.65-2.267-35.5-6.801-10.76-4.405-20.11-11.012-28.06-19.821-7.95-8.809-14.13-19.756-18.52-32.84-4.4-13.084-6.6-28.241-6.6-45.471 0-21.245 2.43-40.483 7.3-57.713 4.86-17.229 11.83-31.933 20.91-44.11 9.07-12.307 19.92-21.699 32.55-28.177 12.72-6.607 26.94-9.91 42.65-9.91 6.55 0 12.91.907 19.09 2.72 6.17 1.814 11.73 4.599 16.69 8.356 4.96 3.627 8.89 8.291 11.79 13.991 2.9 5.571 4.35 12.178 4.35 19.821 0 11.4-1.97 20.209-5.89 26.427-3.84 6.089-9.22 9.133-16.14 9.133-3.46 0-6.5-.129-9.12-.388-2.53-.259-4.87-.518-7.02-.778-2.05-.388-4.02-.712-5.89-.971a41.906 41.906 0 0 0-5.75-.389c-2.53 0-4.77.972-6.74 2.915-1.87 1.814-3.46 4.534-4.77 8.161-1.31 3.498-2.29 7.708-2.94 12.631-.66 4.793-.99 10.234-.99 16.323 0 5.052.24 9.716.7 13.991.47 4.275 1.31 8.032 2.53 11.271 1.31 3.109 3.13 5.57 5.47 7.384 2.43 1.813 5.61 2.72 9.54 2.72 1.69 0 3.61-.388 5.76-1.166 2.24-.777 4.63-1.684 7.15-2.72a50.829 50.829 0 0 1 8.14-2.915c2.99-.777 6.13-1.166 9.4-1.166 11.23 0 18.9 3.563 23.01 10.688 4.12 7.125 6.18 16.517 6.18 28.176 0 11.271-2.2 20.792-6.6 28.565-4.3 7.773-10.19 13.991-17.68 18.655-7.48 4.664-15.95 8.032-25.39 10.105-9.45 2.202-19.32 3.303-29.61 3.303zM1850.2 403.782c-9.07 0-15.57-1.49-19.5-4.47-3.93-2.979-6.69-7.708-8.28-14.185-.38-1.425-.7-2.98-.98-4.664l-.57-5.441a114.16 114.16 0 0 0-.42-5.829c-.09-1.943-.18-3.822-.28-5.635 0-1.814-.04-3.498-.14-5.053-.18-6.218-.61-11.594-1.26-16.128-.65-4.534-2.06-7.903-4.21-10.105-2.34-2.461-4.63-4.145-6.87-5.052-2.16-.907-5.24-1.361-9.27-1.361-1.77 0-3.41.13-4.91.389-1.49.259-2.9.648-4.21 1.166a19.824 19.824 0 0 0-3.5 1.943 18.242 18.242 0 0 0-2.95 2.332c-1.12 1.036-2.24 2.332-3.37 3.886-1.12 1.425-2.1 3.045-2.94 4.858-.66 1.296-1.22 2.786-1.69 4.47a132.29 132.29 0 0 0-1.4 5.052 60.881 60.881 0 0 0-1.26 5.635c-.38 1.944-.75 4.081-1.13 6.413-.37 2.202-.74 4.599-1.12 7.19-1.12 7.384-3.04 13.343-5.75 17.877-2.62 4.534-6.27 7.773-10.95 9.716-4.67 2.073-10.61 3.109-17.82 3.109-10.57 0-18.98-3.497-25.25-10.493-6.27-6.995-11.04-16.193-14.31-27.593a157.51 157.51 0 0 1-3.37-14.769c-.94-5.311-1.68-10.817-2.25-16.517a557.08 557.08 0 0 1-1.12-17.683c-.19-6.089-.28-12.242-.28-18.46 0-7.255.09-14.445.28-21.57.28-7.254.66-14.38 1.12-21.375.57-6.996 1.27-13.797 2.11-20.404.84-6.736 1.92-13.149 3.23-19.237 2.43-11.141 5.56-20.987 9.4-29.537 3.93-8.55 8.79-15.222 14.59-20.015 5.8-4.923 12.72-7.384 20.77-7.384 9.07 0 15.99 2.008 20.76 6.024 4.87 3.886 8.37 9.392 10.53 16.517.46 1.425.93 3.174 1.4 5.247.47 2.072.93 4.275 1.4 6.607.47 2.331.89 4.663 1.26 6.995.47 2.332.89 4.534 1.27 6.607.46 1.943.84 3.627 1.12 5.052 1.03 4.794 2.1 9.069 3.23 12.825 1.21 3.757 2.57 6.737 4.07 8.939 1.77 2.462 3.64 4.275 5.61 5.441 1.96 1.036 4.21 1.555 6.73 1.555 2.9 0 5.29-.13 7.16-.389 1.87-.389 3.51-1.101 4.91-2.138 1.4-1.036 2.85-2.526 4.35-4.469 1.68-2.202 3.13-5.311 4.35-9.327 1.31-4.016 2.29-9.911 2.95-17.683.37-3.757.74-7.255 1.12-10.494.37-3.238.79-6.283 1.26-9.133a89.628 89.628 0 0 1 1.97-8.355 62.06 62.06 0 0 1 3.08-7.967c2.25-4.794 5.52-8.745 9.82-11.854 4.4-3.239 9.87-4.858 16.42-4.858 10.38 0 18.52 3.109 24.42 9.327 5.89 6.219 10.28 14.769 13.18 25.651 1.41 5.181 2.62 10.817 3.65 16.905 1.03 5.96 1.87 12.372 2.53 19.238a364.52 364.52 0 0 1 1.4 21.181c.38 7.384.56 15.027.56 22.93 0 7.254-.14 14.379-.42 21.375-.28 6.866-.7 13.602-1.26 20.209a355.659 355.659 0 0 1-1.83 18.655 377.834 377.834 0 0 1-2.52 17.1 301.64 301.64 0 0 1-3.09 15.546c-3.27 14.12-8.46 25.261-15.57 33.423-7.02 8.161-15.67 12.242-25.96 12.242zM2096.92 403.199c-7.39 0-13.98-1.296-19.78-3.887-5.71-2.591-10.76-7.449-15.15-14.574-.94-1.554-1.73-2.914-2.39-4.08-.65-1.296-1.31-2.591-1.96-3.887-.66-1.295-1.5-2.915-2.53-4.858-1.03-1.943-2.43-4.34-4.21-7.19-2.15-3.627-4.35-6.477-6.59-8.55-2.15-2.202-4.4-3.821-6.74-4.858-.93-.518-1.96-.906-3.09-1.166a28.598 28.598 0 0 0-3.64-.582c-1.31-.13-2.67-.195-4.07-.195-2.15 0-4.35.195-6.6.583-2.24.259-4.3.713-6.17 1.36a18.972 18.972 0 0 0-5.61 3.304c-1.59 1.425-3.04 3.109-4.35 5.052a50.798 50.798 0 0 0-3.65 6.413 761.845 761.845 0 0 0-3.51 6.995 82.402 82.402 0 0 1-3.93 7.19c-3.18 5.311-7.43 9.975-12.77 13.991-5.33 4.016-13 6.024-23.01 6.024-8.79 0-16.13-1.684-22.03-5.052-5.89-3.498-10.29-9.263-13.19-17.295-2.9-8.032-4.35-18.849-4.35-32.451 0-8.162.61-16.388 1.83-24.679 1.31-8.42 3.04-16.776 5.19-25.067a326.224 326.224 0 0 1 7.16-23.901c2.71-7.644 5.42-14.834 8.13-21.57 2.81-6.736 5.48-12.76 8-18.072 2.53-5.311 4.73-9.651 6.6-13.019 3.08-5.7 6.87-11.789 11.36-18.266 4.49-6.478 9.68-12.566 15.58-18.266 5.98-5.7 12.72-10.364 20.2-13.991 7.49-3.628 15.81-5.441 24.98-5.441 13.09 0 25.63 3.627 37.6 10.882 12.07 7.125 23.15 17.618 33.26 31.479 4.3 5.83 8.32 12.502 12.06 20.015 3.74 7.514 7.16 15.611 10.24 24.29 3.19 8.55 5.99 17.424 8.42 26.622a357.245 357.245 0 0 1 6.46 27.788c1.78 9.198 3.08 18.136 3.93 26.816.93 8.68 1.4 16.841 1.4 24.484 0 17.619-3.93 29.99-11.79 37.116-7.85 6.995-18.28 10.493-31.29 10.493zm-55.7-118.535c1.78-1.425 2.9-3.174 3.37-5.247.56-2.202.84-5.311.84-9.327 0-2.203-.19-4.599-.56-7.19a73.328 73.328 0 0 0-1.55-7.967c-.65-2.591-1.4-4.793-2.24-6.607-1.22-2.98-2.67-5.312-4.35-6.996-1.68-1.813-3.41-2.72-5.19-2.72-3.18 0-6.03 1.878-8.56 5.635-2.53 3.757-4.49 7.579-5.89 11.465-.38 1.166-.8 2.591-1.27 4.275a60.305 60.305 0 0 0-1.26 5.052l-.84 5.441a41.744 41.744 0 0 0-.28 4.664c0 4.793 1.49 8.226 4.49 10.299 3.08 2.073 6.36 3.109 9.82 3.109 1.78 0 3.46-.129 5.05-.389 1.69-.388 3.23-.842 4.63-1.36 1.5-.648 2.76-1.36 3.79-2.137z" fill="#000"/></svg>